#N canvas 254 192 1114 650 12;
#X obj 66 295 rfft~;
#X obj 65 336 *~;
#X obj 101 337 *~;
#X obj 64 377 +~;
#X obj 64 414 sqrt~;
#X obj 64 473 tabwrite~ magnitude;
#X obj 115 446 metro 250;
#X obj 115 425 tgl 15 0 empty empty empty 0 -6 0 8 #fcfcfc #000000
#000000 0 1;
#N canvas 0 25 450 300 (subpatch) 0;
#X array magnitude 10 float 4;
#X coords 0 50 9 0 200 140 1 0 0;
#X restore 371 235 graph;
#X text 73 25 3.8.1.1. rfft array;
#X text 145 334 Conversion;
#X text 61 557 www.pd-tutorial.com;
#X text 59 529 Johannes Kreidler;
#X obj 65 179 adc~;
#X obj 174 204 osc~;
#X floatatom 191 81 5 0 0 0 - - - 0;
#X obj 170 151 *~ 100;
#X obj 64 220 *~ 10;
#X connect 0 0 1 0;
#X connect 0 0 1 1;
#X connect 0 1 2 0;
#X connect 0 1 2 1;
#X connect 1 0 3 0;
#X connect 2 0 3 1;
#X connect 3 0 4 0;
#X connect 4 0 5 0;
#X connect 6 0 5 0;
#X connect 7 0 6 0;
#X connect 13 0 17 0;
#X connect 15 0 16 0;
#X connect 16 0 14 0;
#X connect 17 0 0 0;
