#N canvas 1031 0 409 872 12;
#X floatatom 100 291 5 0 0 0 - - - 0;
#X obj 100 314 * 10;
#X obj 100 338 osc~;
#N canvas 1031 28 409 900 fft-analysis 1;
#X obj 37 37 inlet~;
#X obj 37 120 *~;
#X obj 37 159 rfft~;
#X obj 37 207 *~;
#X obj 55 82 tabreceive~ \$0-hann;
#X obj 84 206 *~;
#X obj 36 261 +~;
#X obj 36 285 sqrt~;
#X obj 37 333 tabwrite~ \$0-magnitude;
#X obj 169 29 block~ 512;
#X connect 0 0 1 0;
#X connect 1 0 2 0;
#X connect 2 0 3 0;
#X connect 2 0 3 1;
#X connect 2 1 5 0;
#X connect 2 1 5 1;
#X connect 3 0 6 0;
#X connect 4 0 1 1;
#X connect 5 0 6 1;
#X connect 6 0 7 0;
#X connect 7 0 8 0;
#X restore 100 362 pd fft-analysis;
#X connect 0 0 1 0;
#X connect 1 0 2 0;
#X connect 2 0 3 0;
