#N canvas 771 285 580 475 12;
#X obj 44 108 unpack f f f f f f f f;
#X floatatom 43 288 5 0 0 0 - - - 0;
#X floatatom 65 245 5 0 0 0 - - - 0;
#X floatatom 87 204 5 0 0 0 - - - 0;
#X floatatom 109 171 5 0 0 0 - - - 0;
#X floatatom 129 271 5 0 0 0 - - - 0;
#X floatatom 151 216 5 0 0 0 - - - 0;
#X floatatom 173 182 5 0 0 0 - - - 0;
#X floatatom 195 154 5 0 0 0 - - - 0;
#X obj 230 98 print;
#X obj 218 251 osc~;
#X obj 276 250 osc~;
#X obj 255 311 *~;
#X obj 357 149 vsl 15 128 0 10 0 0 empty empty empty 0 -9 0 10 #fcfcfc
#000000 #000000 0 1;
#X obj 214 369 dac~;
#X obj 44 53 netreceive -u -b 3333;
#X connect 0 0 1 0;
#X connect 0 1 2 0;
#X connect 0 2 3 0;
#X connect 0 3 4 0;
#X connect 0 4 5 0;
#X connect 0 5 6 0;
#X connect 0 6 7 0;
#X connect 0 7 8 0;
#X connect 6 0 10 0;
#X connect 8 0 11 0;
#X connect 10 0 12 0;
#X connect 11 0 12 0;
#X connect 12 0 14 0;
#X connect 13 0 12 1;
#X connect 15 0 0 0;
#X connect 15 0 9 0;
