#N canvas 319 181 759 595 12;
#X msg 58 51 test;
#X msg 117 51 world;
#X obj 58 96 symbol;
#X obj 58 137 oscformat /hello;
#X obj 60 368 list prepend send;
#X obj 60 418 list trim;
#X obj 60 480 netsend -u -b;
#X obj 205 367 loadbang;
#X msg 206 443 disconnect;
#X msg 201 102 bang;
#X obj 201 140 oscformat /bang;
#X msg 335 100 bang;
#X obj 335 139 oscformat /slider;
#X obj 397 75 hsl 128 15 0 127 0 0 empty empty empty -2 -8 0 10 #fcfcfc
#000000 #000000 0 1;
#X floatatom 394 100 5 0 0 0 - - - 0;
#X obj 336 189 adc~;
#X obj 609 44 tgl 15 0 empty empty empty 17 7 0 10 #fcfcfc #000000
#000000 0 1;
#X msg 605 97 \; pd dsp \$1;
#X text 273 530 https://forum.pdpatchrepo.info/topic/9769/routeosc-in-pd-0-46/3
;
#X msg 205 406 connect localhost 3000;
#X obj 335 261 oscformat;
#X obj 518 391 oscparse;
#X connect 0 0 2 0;
#X connect 1 0 2 0;
#X connect 2 0 3 0;
#X connect 3 0 4 0;
#X connect 4 0 5 0;
#X connect 5 0 6 0;
#X connect 7 0 19 0;
#X connect 8 0 6 0;
#X connect 9 0 10 0;
#X connect 10 0 4 0;
#X connect 11 0 12 0;
#X connect 12 0 4 0;
#X connect 13 0 14 0;
#X connect 14 0 12 0;
#X connect 16 0 17 0;
#X connect 19 0 6 0;
